<svg xmlns="http://www.w3.org/2000/svg" viewBox="0 0 24 24" fill="none" role="img" aria-label="Guide">
  <!-- Open book base -->
  <path d="M3 6 Q 3 5, 4 5 L 11 5 L 11 19 L 4 19 Q 3 19, 3 18 Z" fill="#374151" stroke="#1f2937" stroke-width="0.6"/>
  <path d="M21 6 Q 21 5, 20 5 L 13 5 L 13 19 L 20 19 Q 21 19, 21 18 Z" fill="#374151" stroke="#1f2937" stroke-width="0.6"/>
  <!-- Pages, lighter -->
  <line x1="11" y1="5"  x2="11" y2="19" stroke="#1f2937" stroke-width="0.6"/>
  <line x1="13" y1="5"  x2="13" y2="19" stroke="#1f2937" stroke-width="0.6"/>
  <!-- Lines -->
  <line x1="5"  y1="9"  x2="9.5"  y2="9"  stroke="#f7f6f4" stroke-width="0.9"/>
  <line x1="5"  y1="11.4" x2="9.5" y2="11.4" stroke="#f7f6f4" stroke-width="0.9" opacity="0.6"/>
  <line x1="14.5" y1="9"  x2="19" y2="9"  stroke="#f7f6f4" stroke-width="0.9"/>
  <line x1="14.5" y1="11.4" x2="19" y2="11.4" stroke="#f7f6f4" stroke-width="0.9" opacity="0.6"/>
  <!-- Bookmark, accent -->
  <path d="M16 4 L16 11 L17.5 9.5 L19 11 L19 4 Z" fill="#DD3C70"/>
</svg>
